#!OML:ASF H:\IndianDance\Patient Classification 1\Patient 1\Session 1\dancer.ASF
:FULLY-SPECIFIED
:DEGREES
2532
root 17.7198 14.2099 10.0068 -171.79 -6.87928 -169.954
lowerback 8.96886 5.15959 3.5168
upperback -6.62875 7.36709 0.729243
thorax -11.8687 3.17117 -2.52504
lowerneck -11.1942 15.4338 12.2306
upperneck 15.3872 19.58 -4.67409
head 8.25031 9.61062 -1.12219
rclavicle 2.17048e-014 -6.36111e-015
rhumerus -32.3492 24.1341 -77.9229
rradius 118.945
rwrist -57.405
rhand -34.786 -24.343
rfingers 7.12502
rthumb -7.93821 -54.174
lclavicle 2.17048e-014 -6.36111e-015
lhumerus 14.6786 -15.8741 28.7647
lradius 114.499
lwrist 48.8266
lhand -11.4357 45.0509
lfingers 7.12502
lthumb 14.6008 434.517
rfemur -25.7863 -18.3394 15.5234
rtibia 48.1354
rfoot -18.9651 -7.49573
rtoes -16.8533
lfemur -35.303 30.4401 6.7325
ltibia 87.7933
lfoot -8.53182 6.90837
ltoes 2.26626
2533
root 17.9059 14.162 10.0451 -171.993 -6.35245 -169.231
lowerback 9.57255 5.29769 3.755
upperback -6.66312 7.66058 1.18056
thorax -12.298 3.2862 -2.28782
lowerneck -10.8817 15.8063 12.381
upperneck 14.8618 20.0944 -4.69204
head 8.07932 9.87711 -1.11055
rclavicle -1.05604e-014 2.38542e-014
rhumerus -34.236 23.0307 -76.213
rradius 119.54
rwrist -53.0245
rhand -35.7677 -23.3513
rfingers 7.12502
rthumb -8.88565 -53.1442
lclavicle -1.05604e-014 2.38542e-014
lhumerus 13.6921 -14.3677 28.482
lradius 113.826
lwrist 45.3124
lhand -13.256 42.9784
lfingers 7.12502
lthumb 12.8464 432.563
rfemur -26.828 -18.4863 16.9297
rtibia 49.7684
rfoot -19.6183 -6.55636
rtoes -18.9989
lfemur -35.5353 33.6739 6.04885
ltibia 92.9942
lfoot -9.51487 5.95759
ltoes 4.34379
2534
root 18.0851 14.1044 10.0777 -171.855 -5.95519 -167.74
lowerback 9.62908 5.46994 4.73957
upperback -6.81525 8.07081 1.77802
thorax -12.449 3.39474 -2.26058
lowerneck -10.6947 16.0714 12.3997
upperneck 14.366 20.434 -4.52268
head 7.89138 10.0669 -1.04478
rclavicle 7.64327e-014 -5.56597e-015
rhumerus -36.2893 21.7891 -74.4771
rradius 119.966
rwrist -48.3731
rhand -37.0969 -22.3379
rfingers 7.12502
rthumb -10.1681 -52.0722
lclavicle 7.64327e-014 -5.56597e-015
lhumerus 12.8012 -13.0118 28.1932
lradius 113.11
lwrist 41.5169
lhand -15.1074 40.9901
lfingers 7.12502
lthumb 11.0612 430.679
rfemur -28.4422 -18.6651 19.2885
rtibia 51.5102
rfoot -20.3504 -5.09089
rtoes -18.2113
lfemur -36.12 37.2728 6.016
ltibia 97.8971
lfoot -9.77496 4.90928
ltoes 5.67652
2535
root 18.2509 14.0395 10.0999 -171.54 -5.76235 -166.504
lowerback 9.29845 5.54066 5.68454
upperback -6.94174 8.28414 2.27782
thorax -12.3326 3.4173 -2.232
lowerneck -10.5746 16.4057 12.6844
upperneck 13.9659 20.8559 -4.5535
head 7.80468 10.287 -1.04826
rclavicle -5.18952e-014 -2.70347e-014
rhumerus -38.2575 20.4665 -72.6518
rradius 120.063
rwrist -43.3456
rhand -38.6087 -21.0937
rfingers 7.12502
rthumb -11.6263 -50.7512
lclavicle -5.18952e-014 -2.70347e-014
lhumerus 11.8282 -11.5258 27.7404
lradius 112.4
lwrist 37.8048
lhand -16.7308 38.9372
lfingers 7.12502
lthumb 9.49507 428.703
rfemur -30.1397 -18.8927 21.4295
rtibia 53.3134
rfoot -20.9753 -4.00594
rtoes -17.9324
lfemur -36.6664 40.4713 5.44663
ltibia 102.301
lfoot -9.9693 3.33638
ltoes 4.7767
2536
root 18.4122 13.9901 10.1096 -171.23 -5.61028 -165.85
lowerback 8.87208 5.5167 6.04571
upperback -6.97494 8.26507 2.71499
thorax -12.1336 3.38815 -1.90249
lowerneck -10.4581 16.8389 12.5625
upperneck 13.5433 21.4472 -4.38879
head 7.65776 10.5846 -0.924454
rclavicle 2.62955e-014 1.82882e-014
rhumerus -40.1415 19.4294 -70.6984
rradius 119.876
rwrist -38.1687
rhand -40.5803 -19.3837
rfingers 7.12502
rthumb -13.5271 -48.9244
lclavicle 2.62955e-014 1.82882e-014
lhumerus 10.5088 -9.90142 27.1855
lradius 111.691
lwrist 33.6778
lhand -17.7119 36.895
lfingers 7.12502
lthumb 8.54837 426.702
rfemur -31.6898 -19.5646 22.943
rtibia 55.09
rfoot -21.6695 -2.90568
rtoes -16.9915
lfemur -36.8182 43.1462 3.8991
ltibia 105.873
lfoot -9.85586 1.94255
ltoes 3.3022
